<mxfile host="app.diagrams.net" modified="2024-03-22T18:57:46.976Z" agent="Mozilla/5.0 (Windows NT 10.0; Win64; x64; rv:124.0) Gecko/20100101 Firefox/124.0" etag="w1FAGF_YkBY1-TrsyS19" version="24.0.7" type="github">
  <diagram name="Page-1" id="e7e014a7-5840-1c2e-5031-d8a46d1fe8dd">
    <mxGraphModel dx="1059" dy="563" grid="1" gridSize="10" guides="1" tooltips="1" connect="1" arrows="1" fold="1" page="1" pageScale="1" pageWidth="1169" pageHeight="826" background="none" math="0" shadow="0">
      <root>
        <mxCell id="0" />
        <mxCell id="1" parent="0" />
        <mxCell id="17" value="" style="endArrow=open;strokeColor=#FF0000;endFill=1;rounded=0" parent="1" edge="1">
          <mxGeometry relative="1" as="geometry">
            <mxPoint x="361.7567567567569" y="217.5" as="sourcePoint" />
          </mxGeometry>
        </mxCell>
        <mxCell id="19" value="" style="endArrow=open;strokeColor=#FF0000;endFill=1;rounded=0" parent="1" edge="1">
          <mxGeometry relative="1" as="geometry">
            <mxPoint x="245" y="310" as="sourcePoint" />
          </mxGeometry>
        </mxCell>
        <mxCell id="oyGk57IEvTgloW_zHovH-42" value="" style="edgeStyle=orthogonalEdgeStyle;html=1;verticalAlign=bottom;endArrow=open;endSize=8;strokeColor=#ff0000;rounded=0;entryX=0.5;entryY=0;entryDx=0;entryDy=0;" parent="1" target="7" edge="1">
          <mxGeometry relative="1" as="geometry">
            <mxPoint x="344.38451612903225" y="262.5" as="targetPoint" />
            <mxPoint x="86.76387096774194" y="195.26315789473682" as="sourcePoint" />
          </mxGeometry>
        </mxCell>
        <mxCell id="oyGk57IEvTgloW_zHovH-46" value="" style="shape=line;html=1;strokeWidth=6;strokeColor=#ff0000;" parent="1" vertex="1">
          <mxGeometry x="35.82" y="723.55" width="994.18" height="9.61" as="geometry" />
        </mxCell>
        <mxCell id="oyGk57IEvTgloW_zHovH-51" value="" style="group" parent="1" vertex="1" connectable="0">
          <mxGeometry x="46.55612903225807" y="302.8421052631579" width="91.87741935483871" height="67.23684210526315" as="geometry" />
        </mxCell>
        <mxCell id="7" value="Proceso consulta&#xa;predicciones&#xa;" style="verticalAlign=middle;fontSize=10;" parent="oyGk57IEvTgloW_zHovH-51" vertex="1">
          <mxGeometry y="12.486842105263156" width="80.05161290322582" height="38.421052631578945" as="geometry" />
        </mxCell>
        <mxCell id="oyGk57IEvTgloW_zHovH-44" value="" style="endArrow=open;strokeColor=#FF0000;endFill=1;rounded=0;exitX=0.75;exitY=1;exitDx=0;exitDy=0;entryX=0.75;entryY=0;entryDx=0;entryDy=0;" parent="oyGk57IEvTgloW_zHovH-51" edge="1">
          <mxGeometry relative="1" as="geometry">
            <mxPoint x="60.76645161290323" y="50.907894736842096" as="sourcePoint" />
            <mxPoint x="60.76645161290323" y="12.486842105263156" as="targetPoint" />
            <Array as="points">
              <mxPoint x="60.58451612903226" y="67.23684210526315" />
              <mxPoint x="91.87741935483871" y="67.23684210526315" />
              <mxPoint x="91.87741935483871" y="38.421052631578945" />
              <mxPoint x="91.14967741935484" />
              <mxPoint x="76.59483870967742" />
              <mxPoint x="60.58451612903226" />
            </Array>
          </mxGeometry>
        </mxCell>
        <mxCell id="oyGk57IEvTgloW_zHovH-54" value="" style="group" parent="1" vertex="1" connectable="0">
          <mxGeometry x="144.98322580645163" y="300.92105263157896" width="94.60645161290323" height="67.23684210526315" as="geometry" />
        </mxCell>
        <mxCell id="oyGk57IEvTgloW_zHovH-55" value="Proceso consulta&#xa;Recomendación&#xa;" style="verticalAlign=middle;fontSize=10;" parent="oyGk57IEvTgloW_zHovH-54" vertex="1">
          <mxGeometry y="12.486842105263156" width="82.42938358351965" height="38.421052631578945" as="geometry" />
        </mxCell>
        <mxCell id="oyGk57IEvTgloW_zHovH-56" value="" style="endArrow=open;strokeColor=#FF0000;endFill=1;rounded=0;exitX=0.75;exitY=1;exitDx=0;exitDy=0;entryX=0.75;entryY=0;entryDx=0;entryDy=0;" parent="oyGk57IEvTgloW_zHovH-54" edge="1">
          <mxGeometry relative="1" as="geometry">
            <mxPoint x="62.57139572021719" y="50.907894736842096" as="sourcePoint" />
            <mxPoint x="62.57139572021719" y="12.486842105263156" as="targetPoint" />
            <Array as="points">
              <mxPoint x="62.38405621207282" y="67.23684210526315" />
              <mxPoint x="94.60645161290323" y="67.23684210526315" />
              <mxPoint x="94.60645161290323" y="38.421052631578945" />
              <mxPoint x="93.85709358032578" />
              <mxPoint x="78.86993292877675" />
              <mxPoint x="62.38405621207282" />
            </Array>
          </mxGeometry>
        </mxCell>
        <mxCell id="9" value="" style="endArrow=open;strokeColor=#FF0000;endFill=1;rounded=0;" parent="1" source="7" edge="1">
          <mxGeometry relative="1" as="geometry">
            <mxPoint x="87" y="728" as="targetPoint" />
          </mxGeometry>
        </mxCell>
        <mxCell id="oyGk57IEvTgloW_zHovH-57" value="" style="endArrow=open;strokeColor=#FF0000;endFill=1;rounded=0;" parent="1" source="oyGk57IEvTgloW_zHovH-55" edge="1">
          <mxGeometry relative="1" as="geometry">
            <mxPoint x="186" y="728" as="targetPoint" />
          </mxGeometry>
        </mxCell>
        <mxCell id="oyGk57IEvTgloW_zHovH-61" value="" style="html=1;verticalAlign=bottom;endArrow=open;endSize=8;strokeColor=#ff0000;rounded=0;" parent="1" edge="1">
          <mxGeometry relative="1" as="geometry">
            <mxPoint x="189.37548387096774" y="310.52631578947364" as="targetPoint" />
            <mxPoint x="189.37548387096774" y="195.26315789473682" as="sourcePoint" />
          </mxGeometry>
        </mxCell>
        <mxCell id="oyGk57IEvTgloW_zHovH-160" value="" style="shape=line;html=1;strokeWidth=6;strokeColor=#ff0000;" parent="1" vertex="1">
          <mxGeometry x="30" y="185.66" width="1000" height="9.61" as="geometry" />
        </mxCell>
        <mxCell id="2" value="App Móvil" style="swimlane;whiteSpace=wrap;container=0;" parent="1" vertex="1">
          <mxGeometry x="31.499148387096774" y="154.92105263157896" width="232.87741935483868" height="605.1315789473684" as="geometry" />
        </mxCell>
        <mxCell id="14" value="" style="edgeStyle=elbowEdgeStyle;elbow=horizontal;verticalAlign=bottom;endArrow=open;endSize=8;strokeColor=#FF0000;endFill=1;rounded=0;entryX=0.522;entryY=0.6;entryDx=0;entryDy=0;entryPerimeter=0;" parent="1" source="13" target="oyGk57IEvTgloW_zHovH-160" edge="1">
          <mxGeometry x="1385.6426322580646" y="382.1578947368421" as="geometry">
            <mxPoint x="737.4258580645161" y="198.42105263157896" as="targetPoint" />
          </mxGeometry>
        </mxCell>
        <mxCell id="MZYvdmbF87EqFMKrzUNa-25" value="" style="group" vertex="1" connectable="0" parent="1">
          <mxGeometry x="482.79806451612905" y="80" width="21.832258064516168" height="730" as="geometry" />
        </mxCell>
        <mxCell id="oyGk57IEvTgloW_zHovH-153" value="" style="endArrow=open;strokeColor=#FF0000;endFill=1;rounded=0;" parent="MZYvdmbF87EqFMKrzUNa-25" edge="1">
          <mxGeometry relative="1" as="geometry">
            <mxPoint x="107.20193548387095" y="650" as="sourcePoint" />
            <mxPoint x="107.20193548387095" y="731" as="targetPoint" />
          </mxGeometry>
        </mxCell>
        <mxCell id="4" value="ControladorBuque" style="swimlane;whiteSpace=wrap;container=0;" parent="1" vertex="1">
          <mxGeometry x="264.37359999999995" y="154.92105263157896" width="327.1709419354838" height="605.1315789473684" as="geometry" />
        </mxCell>
        <mxCell id="oyGk57IEvTgloW_zHovH-83" value="" style="edgeStyle=orthogonalEdgeStyle;html=1;verticalAlign=bottom;endArrow=open;endSize=8;strokeColor=#ff0000;rounded=0;entryX=0.5;entryY=0;entryDx=0;entryDy=0;" parent="4" target="oyGk57IEvTgloW_zHovH-85" edge="1">
          <mxGeometry relative="1" as="geometry">
            <mxPoint x="304.79287741935485" y="106.61842105263158" as="targetPoint" />
            <mxPoint x="47.17223225806455" y="39.38157894736842" as="sourcePoint" />
          </mxGeometry>
        </mxCell>
        <mxCell id="oyGk57IEvTgloW_zHovH-84" value="" style="group" parent="4" vertex="1" connectable="0">
          <mxGeometry x="6.964490322580681" y="146.96052631578948" width="91.87741935483871" height="67.23684210526315" as="geometry" />
        </mxCell>
        <mxCell id="oyGk57IEvTgloW_zHovH-85" value="Gestionar &#xa;Publicaciones &#xa;sensores" style="verticalAlign=middle;" parent="oyGk57IEvTgloW_zHovH-84" vertex="1">
          <mxGeometry y="12.486842105263156" width="80.05161290322582" height="38.421052631578945" as="geometry" />
        </mxCell>
        <mxCell id="oyGk57IEvTgloW_zHovH-86" value="" style="endArrow=open;strokeColor=#FF0000;endFill=1;rounded=0;exitX=0.75;exitY=1;exitDx=0;exitDy=0;entryX=0.75;entryY=0;entryDx=0;entryDy=0;" parent="oyGk57IEvTgloW_zHovH-84" edge="1">
          <mxGeometry relative="1" as="geometry">
            <mxPoint x="60.76645161290323" y="50.907894736842096" as="sourcePoint" />
            <mxPoint x="60.76645161290323" y="12.486842105263156" as="targetPoint" />
            <Array as="points">
              <mxPoint x="60.58451612903226" y="67.23684210526315" />
              <mxPoint x="91.87741935483871" y="67.23684210526315" />
              <mxPoint x="91.87741935483871" y="38.421052631578945" />
              <mxPoint x="91.14967741935484" />
              <mxPoint x="76.59483870967742" />
              <mxPoint x="60.58451612903226" />
            </Array>
          </mxGeometry>
        </mxCell>
        <mxCell id="oyGk57IEvTgloW_zHovH-87" value="" style="endArrow=open;strokeColor=#FF0000;endFill=1;rounded=0;entryX=0.096;entryY=0.8;entryDx=0;entryDy=0;entryPerimeter=0;" parent="4" source="oyGk57IEvTgloW_zHovH-85" edge="1">
          <mxGeometry relative="1" as="geometry">
            <mxPoint x="47.89997419354842" y="575.3552631578947" as="targetPoint" />
          </mxGeometry>
        </mxCell>
        <mxCell id="oyGk57IEvTgloW_zHovH-88" value="" style="edgeStyle=orthogonalEdgeStyle;html=1;verticalAlign=bottom;endArrow=open;endSize=8;strokeColor=#ff0000;rounded=0;entryX=0.5;entryY=0;entryDx=0;entryDy=0;" parent="4" target="oyGk57IEvTgloW_zHovH-90" edge="1">
          <mxGeometry relative="1" as="geometry">
            <mxPoint x="406.6767483870968" y="107.57894736842105" as="targetPoint" />
            <mxPoint x="149.05610322580648" y="40.3421052631579" as="sourcePoint" />
          </mxGeometry>
        </mxCell>
        <mxCell id="oyGk57IEvTgloW_zHovH-89" value="" style="group" parent="4" vertex="1" connectable="0">
          <mxGeometry x="108.8483612903226" y="147.92105263157896" width="91.87741935483871" height="67.23684210526315" as="geometry" />
        </mxCell>
        <mxCell id="oyGk57IEvTgloW_zHovH-90" value="Gestionar &#xa;subcripciones&#xa; plataforma IA" style="verticalAlign=middle;" parent="oyGk57IEvTgloW_zHovH-89" vertex="1">
          <mxGeometry y="12.486842105263156" width="80.05161290322582" height="38.421052631578945" as="geometry" />
        </mxCell>
        <mxCell id="oyGk57IEvTgloW_zHovH-91" value="" style="endArrow=open;strokeColor=#FF0000;endFill=1;rounded=0;exitX=0.75;exitY=1;exitDx=0;exitDy=0;entryX=0.75;entryY=0;entryDx=0;entryDy=0;" parent="oyGk57IEvTgloW_zHovH-89" edge="1">
          <mxGeometry relative="1" as="geometry">
            <mxPoint x="60.76645161290323" y="50.907894736842096" as="sourcePoint" />
            <mxPoint x="60.76645161290323" y="12.486842105263156" as="targetPoint" />
            <Array as="points">
              <mxPoint x="60.58451612903226" y="67.23684210526315" />
              <mxPoint x="91.87741935483871" y="67.23684210526315" />
              <mxPoint x="91.87741935483871" y="38.421052631578945" />
              <mxPoint x="91.14967741935484" />
              <mxPoint x="76.59483870967742" />
              <mxPoint x="60.58451612903226" />
            </Array>
          </mxGeometry>
        </mxCell>
        <mxCell id="oyGk57IEvTgloW_zHovH-92" value="" style="endArrow=open;strokeColor=#FF0000;endFill=1;rounded=0;entryX=0.096;entryY=0.8;entryDx=0;entryDy=0;entryPerimeter=0;" parent="4" source="oyGk57IEvTgloW_zHovH-90" edge="1">
          <mxGeometry relative="1" as="geometry">
            <mxPoint x="149.78384516129034" y="576.3157894736842" as="targetPoint" />
          </mxGeometry>
        </mxCell>
        <mxCell id="oyGk57IEvTgloW_zHovH-95" value="Recibir &#xa;Indicaciones" style="verticalAlign=middle;" parent="4" vertex="1">
          <mxGeometry x="210.73223225806453" y="160.4078947368421" width="80.0516129032258" height="38.421052631578945" as="geometry" />
        </mxCell>
        <mxCell id="oyGk57IEvTgloW_zHovH-96" value="" style="html=1;verticalAlign=bottom;endArrow=open;endSize=8;strokeColor=#ff0000;rounded=0;entryX=0.5;entryY=0;entryDx=0;entryDy=0;" parent="4" target="oyGk57IEvTgloW_zHovH-95" edge="1">
          <mxGeometry relative="1" as="geometry">
            <mxPoint x="247.11932903225807" y="160.4078947368421" as="targetPoint" />
            <mxPoint x="250.75803870967744" y="40.3421052631579" as="sourcePoint" />
          </mxGeometry>
        </mxCell>
        <mxCell id="oyGk57IEvTgloW_zHovH-97" value="" style="html=1;verticalAlign=bottom;endArrow=open;endSize=8;strokeColor=#ff0000;rounded=0;exitX=1;exitY=0.5;exitDx=0;exitDy=0;entryX=1;entryY=0.5;entryDx=0;entryDy=0;" parent="4" source="oyGk57IEvTgloW_zHovH-99" target="oyGk57IEvTgloW_zHovH-95" edge="1">
          <mxGeometry relative="1" as="geometry">
            <mxPoint x="305.33868387096777" y="165.21052631578948" as="targetPoint" />
            <mxPoint x="258.03545806451615" y="49.94736842105263" as="sourcePoint" />
            <Array as="points">
              <mxPoint x="305.33868387096777" y="274.7105263157895" />
              <mxPoint x="305.33868387096777" y="179.6184210526316" />
            </Array>
          </mxGeometry>
        </mxCell>
        <mxCell id="oyGk57IEvTgloW_zHovH-98" value="" style="html=1;verticalAlign=bottom;endArrow=open;endSize=8;strokeColor=#ff0000;rounded=0;exitX=0.5;exitY=1;exitDx=0;exitDy=0;" parent="4" source="oyGk57IEvTgloW_zHovH-95" edge="1">
          <mxGeometry relative="1" as="geometry">
            <mxPoint x="251.7113806451613" y="261.2631578947368" as="targetPoint" />
            <mxPoint x="251.34750967741937" y="213.23684210526315" as="sourcePoint" />
          </mxGeometry>
        </mxCell>
        <mxCell id="oyGk57IEvTgloW_zHovH-99" value="Gestionar&#xa;Sistema&#xa; Navegación&#xa;" style="verticalAlign=middle;" parent="4" vertex="1">
          <mxGeometry x="215.32428387096772" y="249.73684210526315" width="72.77419354838709" height="49.94736842105263" as="geometry" />
        </mxCell>
        <mxCell id="oyGk57IEvTgloW_zHovH-100" value="" style="endArrow=open;strokeColor=#FF0000;endFill=1;rounded=0;entryX=0.488;entryY=0.8;entryDx=0;entryDy=0;entryPerimeter=0;exitX=0.5;exitY=1;exitDx=0;exitDy=0;" parent="4" source="oyGk57IEvTgloW_zHovH-99" edge="1">
          <mxGeometry relative="1" as="geometry">
            <mxPoint x="21.5193290322581" y="208.43421052631578" as="sourcePoint" />
            <mxPoint x="254.39674838709678" y="576.3157894736842" as="targetPoint" />
          </mxGeometry>
        </mxCell>
        <mxCell id="oyGk57IEvTgloW_zHovH-101" value="Plataforma IA" style="swimlane;whiteSpace=wrap;container=0;startSize=23;" parent="1" vertex="1">
          <mxGeometry x="591.5445419354837" y="154.92105263157896" width="109.16129032258064" height="605.1315789473684" as="geometry" />
        </mxCell>
        <mxCell id="oyGk57IEvTgloW_zHovH-112" value="Recibir &#xa;Subcripción" style="verticalAlign=middle;" parent="oyGk57IEvTgloW_zHovH-101" vertex="1">
          <mxGeometry x="10.916129032258105" y="160.4078947368421" width="80.0516129032258" height="38.421052631578945" as="geometry" />
        </mxCell>
        <mxCell id="oyGk57IEvTgloW_zHovH-113" value="" style="html=1;verticalAlign=bottom;endArrow=open;endSize=8;strokeColor=#ff0000;rounded=0;entryX=0.5;entryY=0;entryDx=0;entryDy=0;" parent="oyGk57IEvTgloW_zHovH-101" edge="1">
          <mxGeometry relative="1" as="geometry">
            <mxPoint x="49.988593548387215" y="160.4078947368421" as="targetPoint" />
            <mxPoint x="49.98859354838713" y="40.3421052631579" as="sourcePoint" />
          </mxGeometry>
        </mxCell>
        <mxCell id="oyGk57IEvTgloW_zHovH-114" value="" style="html=1;verticalAlign=bottom;endArrow=open;endSize=8;strokeColor=#ff0000;rounded=0;exitX=1;exitY=0.5;exitDx=0;exitDy=0;entryX=1;entryY=0.5;entryDx=0;entryDy=0;" parent="oyGk57IEvTgloW_zHovH-101" source="oyGk57IEvTgloW_zHovH-116" edge="1">
          <mxGeometry relative="1" as="geometry">
            <mxPoint x="90.01440000000011" y="179.6184210526316" as="targetPoint" />
            <mxPoint x="57.26601290322584" y="49.94736842105263" as="sourcePoint" />
            <Array as="points">
              <mxPoint x="104.51545806451622" y="291.07894736842104" />
              <mxPoint x="104.56923870967745" y="179.6184210526316" />
            </Array>
          </mxGeometry>
        </mxCell>
        <mxCell id="oyGk57IEvTgloW_zHovH-115" value="" style="html=1;verticalAlign=bottom;endArrow=open;endSize=8;strokeColor=#ff0000;rounded=0;exitX=0.5;exitY=1;exitDx=0;exitDy=0;" parent="oyGk57IEvTgloW_zHovH-101" edge="1">
          <mxGeometry relative="1" as="geometry">
            <mxPoint x="50.941935483871006" y="261.2631578947368" as="targetPoint" />
            <mxPoint x="49.988593548387215" y="198.82894736842104" as="sourcePoint" />
          </mxGeometry>
        </mxCell>
        <mxCell id="oyGk57IEvTgloW_zHovH-116" value="Gestionar &#xa;Predicciones&#xa;Recomendación&#xa;" style="verticalAlign=middle;" parent="oyGk57IEvTgloW_zHovH-101" vertex="1">
          <mxGeometry x="7.29" y="265.08" width="92.71" height="51.92" as="geometry" />
        </mxCell>
        <mxCell id="oyGk57IEvTgloW_zHovH-117" value="" style="endArrow=open;strokeColor=#FF0000;endFill=1;rounded=0;entryX=0.488;entryY=0.8;entryDx=0;entryDy=0;entryPerimeter=0;exitX=0.5;exitY=1;exitDx=0;exitDy=0;" parent="oyGk57IEvTgloW_zHovH-101" source="oyGk57IEvTgloW_zHovH-116" edge="1">
          <mxGeometry relative="1" as="geometry">
            <mxPoint x="-179.2501161290322" y="208.43421052631578" as="sourcePoint" />
            <mxPoint x="53.627303225806486" y="576.3157894736842" as="targetPoint" />
          </mxGeometry>
        </mxCell>
        <mxCell id="oyGk57IEvTgloW_zHovH-123" value=" Operador" style="swimlane;whiteSpace=wrap;container=0;" parent="1" vertex="1">
          <mxGeometry x="701.4335741935481" y="154.92105263157896" width="327.1709419354838" height="605.1315789473684" as="geometry" />
        </mxCell>
        <mxCell id="oyGk57IEvTgloW_zHovH-129" value="" style="edgeStyle=orthogonalEdgeStyle;html=1;verticalAlign=bottom;endArrow=open;endSize=8;strokeColor=#ff0000;rounded=0;entryX=0.5;entryY=0;entryDx=0;entryDy=0;" parent="oyGk57IEvTgloW_zHovH-123" target="oyGk57IEvTgloW_zHovH-131" edge="1">
          <mxGeometry relative="1" as="geometry">
            <mxPoint x="406.6767483870968" y="107.57894736842105" as="targetPoint" />
            <mxPoint x="149.05610322580648" y="40.3421052631579" as="sourcePoint" />
          </mxGeometry>
        </mxCell>
        <mxCell id="oyGk57IEvTgloW_zHovH-130" value="" style="group" parent="oyGk57IEvTgloW_zHovH-123" vertex="1" connectable="0">
          <mxGeometry x="108.8483612903226" y="147.92105263157896" width="91.87741935483871" height="67.23684210526315" as="geometry" />
        </mxCell>
        <mxCell id="oyGk57IEvTgloW_zHovH-131" value="Gestionar &#xa;Cumplimiento&#xa;normativo&#xa; " style="verticalAlign=middle;" parent="oyGk57IEvTgloW_zHovH-130" vertex="1">
          <mxGeometry y="12.486842105263156" width="80.05161290322582" height="54.74999999999999" as="geometry" />
        </mxCell>
        <mxCell id="oyGk57IEvTgloW_zHovH-147" value="" style="html=1;verticalAlign=bottom;endArrow=open;endSize=8;strokeColor=#ff0000;rounded=0;exitX=0.75;exitY=1;exitDx=0;exitDy=0;entryX=0.75;entryY=0;entryDx=0;entryDy=0;" parent="oyGk57IEvTgloW_zHovH-130" source="oyGk57IEvTgloW_zHovH-131" target="oyGk57IEvTgloW_zHovH-131" edge="1">
          <mxGeometry relative="1" as="geometry">
            <mxPoint x="-127.99525161290323" y="41.30263157894736" as="targetPoint" />
            <mxPoint x="-130.68061935483883" y="147.92105263157893" as="sourcePoint" />
            <Array as="points">
              <mxPoint x="59.987767741935365" y="84.52631578947367" />
              <mxPoint x="94.91938064516117" y="84.52631578947367" />
              <mxPoint x="94.91938064516117" y="-1.9210526315789471" />
              <mxPoint x="59.987767741935365" y="-1.9210526315789471" />
            </Array>
          </mxGeometry>
        </mxCell>
        <mxCell id="oyGk57IEvTgloW_zHovH-133" value="" style="endArrow=open;strokeColor=#FF0000;endFill=1;rounded=0;entryX=0.096;entryY=0.8;entryDx=0;entryDy=0;entryPerimeter=0;" parent="oyGk57IEvTgloW_zHovH-123" source="oyGk57IEvTgloW_zHovH-131" edge="1">
          <mxGeometry relative="1" as="geometry">
            <mxPoint x="149.78384516129034" y="576.3157894736842" as="targetPoint" />
          </mxGeometry>
        </mxCell>
        <mxCell id="oyGk57IEvTgloW_zHovH-135" value="" style="html=1;verticalAlign=bottom;endArrow=open;endSize=8;strokeColor=#ff0000;rounded=0;entryX=0.5;entryY=0;entryDx=0;entryDy=0;" parent="oyGk57IEvTgloW_zHovH-123" edge="1">
          <mxGeometry relative="1" as="geometry">
            <mxPoint x="250.75803870967752" y="160.4078947368421" as="targetPoint" />
            <mxPoint x="250.75803870967744" y="40.3421052631579" as="sourcePoint" />
          </mxGeometry>
        </mxCell>
        <mxCell id="oyGk57IEvTgloW_zHovH-136" value="" style="html=1;verticalAlign=bottom;endArrow=open;endSize=8;strokeColor=#ff0000;rounded=0;exitX=0.75;exitY=1;exitDx=0;exitDy=0;entryX=0.75;entryY=0;entryDx=0;entryDy=0;" parent="oyGk57IEvTgloW_zHovH-123" source="oyGk57IEvTgloW_zHovH-138" target="oyGk57IEvTgloW_zHovH-138" edge="1">
          <mxGeometry relative="1" as="geometry">
            <mxPoint x="269.26451612903224" y="107.57894736842105" as="targetPoint" />
            <mxPoint x="269.9922580645161" y="155.60526315789474" as="sourcePoint" />
            <Array as="points">
              <mxPoint x="269.26451612903224" y="232.44736842105263" />
              <mxPoint x="305.6516129032258" y="232.44736842105263" />
              <mxPoint x="305.6516129032258" y="146" />
              <mxPoint x="269.26451612903224" y="146" />
            </Array>
          </mxGeometry>
        </mxCell>
        <mxCell id="oyGk57IEvTgloW_zHovH-138" value="Gestión &#xa;&#xa;Flota&#xa;" style="verticalAlign=middle;" parent="oyGk57IEvTgloW_zHovH-123" vertex="1">
          <mxGeometry x="215.32428387096772" y="160.4078947368421" width="72.77419354838709" height="49.94736842105263" as="geometry" />
        </mxCell>
        <mxCell id="oyGk57IEvTgloW_zHovH-139" value="" style="endArrow=open;strokeColor=#FF0000;endFill=1;rounded=0;entryX=0.488;entryY=0.8;entryDx=0;entryDy=0;entryPerimeter=0;exitX=0.5;exitY=1;exitDx=0;exitDy=0;" parent="oyGk57IEvTgloW_zHovH-123" source="oyGk57IEvTgloW_zHovH-138" edge="1">
          <mxGeometry relative="1" as="geometry">
            <mxPoint x="21.5193290322581" y="208.43421052631578" as="sourcePoint" />
            <mxPoint x="254.39674838709678" y="576.3157894736842" as="targetPoint" />
          </mxGeometry>
        </mxCell>
        <mxCell id="oyGk57IEvTgloW_zHovH-140" value="Recibir &#xa;Contrato" style="verticalAlign=middle;" parent="oyGk57IEvTgloW_zHovH-123" vertex="1">
          <mxGeometry x="7.2774193548387505" y="160.4078947368421" width="80.0516129032258" height="38.421052631578945" as="geometry" />
        </mxCell>
        <mxCell id="oyGk57IEvTgloW_zHovH-141" value="" style="html=1;verticalAlign=bottom;endArrow=open;endSize=8;strokeColor=#ff0000;rounded=0;entryX=0.5;entryY=0;entryDx=0;entryDy=0;" parent="oyGk57IEvTgloW_zHovH-123" edge="1">
          <mxGeometry relative="1" as="geometry">
            <mxPoint x="46.34988387096786" y="160.4078947368421" as="targetPoint" />
            <mxPoint x="46.34988387096778" y="40.3421052631579" as="sourcePoint" />
          </mxGeometry>
        </mxCell>
        <mxCell id="oyGk57IEvTgloW_zHovH-142" value="" style="html=1;verticalAlign=bottom;endArrow=open;endSize=8;strokeColor=#ff0000;rounded=0;exitX=1;exitY=0.5;exitDx=0;exitDy=0;entryX=1;entryY=0.5;entryDx=0;entryDy=0;" parent="oyGk57IEvTgloW_zHovH-123" source="oyGk57IEvTgloW_zHovH-143" edge="1">
          <mxGeometry relative="1" as="geometry">
            <mxPoint x="86.37569032258075" y="179.6184210526316" as="targetPoint" />
            <mxPoint x="53.627303225806486" y="49.94736842105263" as="sourcePoint" />
            <Array as="points">
              <mxPoint x="101.15612903225805" y="286.2368421052632" />
              <mxPoint x="100.9305290322581" y="179.6184210526316" />
            </Array>
          </mxGeometry>
        </mxCell>
        <mxCell id="oyGk57IEvTgloW_zHovH-143" value="Gestionar&#xa; Ruta&#xa;" style="verticalAlign=middle;" parent="oyGk57IEvTgloW_zHovH-123" vertex="1">
          <mxGeometry x="10.916129032258063" y="261.2631578947368" width="72.77419354838709" height="49.94736842105263" as="geometry" />
        </mxCell>
        <mxCell id="oyGk57IEvTgloW_zHovH-144" value="" style="endArrow=open;strokeColor=#FF0000;endFill=1;rounded=0;entryX=0.488;entryY=0.8;entryDx=0;entryDy=0;entryPerimeter=0;exitX=0.5;exitY=1;exitDx=0;exitDy=0;" parent="oyGk57IEvTgloW_zHovH-123" source="oyGk57IEvTgloW_zHovH-143" edge="1">
          <mxGeometry relative="1" as="geometry">
            <mxPoint x="-182.88882580645156" y="208.43421052631578" as="sourcePoint" />
            <mxPoint x="49.98859354838713" y="576.3157894736842" as="targetPoint" />
          </mxGeometry>
        </mxCell>
        <mxCell id="oyGk57IEvTgloW_zHovH-145" value="" style="html=1;verticalAlign=bottom;endArrow=open;endSize=8;strokeColor=#ff0000;rounded=0;exitX=0.5;exitY=1;exitDx=0;exitDy=0;" parent="oyGk57IEvTgloW_zHovH-123" source="oyGk57IEvTgloW_zHovH-140" target="oyGk57IEvTgloW_zHovH-143" edge="1">
          <mxGeometry relative="1" as="geometry">
            <mxPoint x="-58.21935483870963" y="270.86842105263156" as="targetPoint" />
            <mxPoint x="-59.17269677419342" y="208.43421052631578" as="sourcePoint" />
          </mxGeometry>
        </mxCell>
        <mxCell id="oyGk57IEvTgloW_zHovH-157" value="" style="ellipse;html=1;shape=endState;fillColor=#000000;strokeColor=#ff0000;" parent="1" vertex="1">
          <mxGeometry x="573.998064516129" y="797.0042105263159" width="21.83225806451613" height="28.81578947368421" as="geometry" />
        </mxCell>
        <mxCell id="13" value="" style="ellipse;shape=startState;fillColor=#000000;strokeColor=#ff0000;" parent="1" vertex="1">
          <mxGeometry x="539.998064516129" y="60" width="21.83225806451613" height="28.81578947368421" as="geometry" />
        </mxCell>
      </root>
    </mxGraphModel>
  </diagram>
</mxfile>
